<mxfile host="app.diagrams.net" modified="2023-04-06T11:52:56.884Z" agent="5.0 (Windows NT 10.0; Win64; x64) AppleWebKit/537.36 (KHTML, like Gecko) Chrome/111.0.0.0 Safari/537.36" etag="XxTtFxvMVtPdMyTH09dT" version="21.0.6" type="github">
  <diagram id="prtHgNgQTEPvFCAcTncT" name="Page-1">
    <mxGraphModel dx="1077" dy="594" grid="1" gridSize="10" guides="1" tooltips="1" connect="1" arrows="1" fold="1" page="1" pageScale="1" pageWidth="827" pageHeight="1169" math="0" shadow="0">
      <root>
        <mxCell id="0" />
        <mxCell id="1" parent="0" />
        <mxCell id="oZdQhtQClKmFtU5mLZvU-7" value="" style="edgeStyle=orthogonalEdgeStyle;rounded=0;orthogonalLoop=1;jettySize=auto;html=1;" edge="1" parent="1" source="oZdQhtQClKmFtU5mLZvU-1" target="oZdQhtQClKmFtU5mLZvU-4">
          <mxGeometry relative="1" as="geometry" />
        </mxCell>
        <mxCell id="oZdQhtQClKmFtU5mLZvU-1" value="&lt;font style=&quot;font-size: 20px;&quot; color=&quot;#ffffff&quot;&gt;TEXT&lt;/font&gt;" style="rounded=1;whiteSpace=wrap;html=1;fillColor=#74abc3;dashed=1;strokeColor=none;" vertex="1" parent="1">
          <mxGeometry x="40" y="200" width="120" height="40" as="geometry" />
        </mxCell>
        <mxCell id="oZdQhtQClKmFtU5mLZvU-2" value="数据集、大厂发文量、公开项目stars" style="rounded=0;whiteSpace=wrap;html=1;" vertex="1" parent="1">
          <mxGeometry x="20" y="20" width="120" height="60" as="geometry" />
        </mxCell>
        <mxCell id="oZdQhtQClKmFtU5mLZvU-3" value="&lt;font style=&quot;font-size: 16px;&quot; color=&quot;#ffffff&quot;&gt;Dataset1&lt;/font&gt;" style="rounded=1;whiteSpace=wrap;html=1;fillColor=#909090;dashed=1;strokeColor=none;glass=0;shadow=0;" vertex="1" parent="1">
          <mxGeometry x="40" y="160" width="120" height="40" as="geometry" />
        </mxCell>
        <mxCell id="oZdQhtQClKmFtU5mLZvU-9" value="" style="edgeStyle=orthogonalEdgeStyle;rounded=0;orthogonalLoop=1;jettySize=auto;html=1;" edge="1" parent="1" source="oZdQhtQClKmFtU5mLZvU-4" target="oZdQhtQClKmFtU5mLZvU-5">
          <mxGeometry relative="1" as="geometry" />
        </mxCell>
        <mxCell id="oZdQhtQClKmFtU5mLZvU-4" value="&lt;font style=&quot;font-size: 20px;&quot; color=&quot;#ffffff&quot;&gt;IMAGE&lt;/font&gt;" style="rounded=1;whiteSpace=wrap;html=1;fillColor=#74abc3;dashed=1;strokeColor=none;" vertex="1" parent="1">
          <mxGeometry x="200" y="200" width="120" height="40" as="geometry" />
        </mxCell>
        <mxCell id="oZdQhtQClKmFtU5mLZvU-10" value="" style="edgeStyle=orthogonalEdgeStyle;rounded=0;orthogonalLoop=1;jettySize=auto;html=1;" edge="1" parent="1" source="oZdQhtQClKmFtU5mLZvU-5" target="oZdQhtQClKmFtU5mLZvU-6">
          <mxGeometry relative="1" as="geometry" />
        </mxCell>
        <mxCell id="oZdQhtQClKmFtU5mLZvU-5" value="&lt;font color=&quot;#ffffff&quot;&gt;&lt;span style=&quot;font-size: 20px;&quot;&gt;VIDEO&lt;/span&gt;&lt;/font&gt;" style="rounded=1;whiteSpace=wrap;html=1;fillColor=#74abc3;dashed=1;strokeColor=none;" vertex="1" parent="1">
          <mxGeometry x="360" y="200" width="120" height="40" as="geometry" />
        </mxCell>
        <mxCell id="oZdQhtQClKmFtU5mLZvU-6" value="&lt;font style=&quot;font-size: 20px;&quot; color=&quot;#ffffff&quot;&gt;3D&lt;/font&gt;" style="rounded=1;whiteSpace=wrap;html=1;fillColor=#74abc3;dashed=1;strokeColor=none;" vertex="1" parent="1">
          <mxGeometry x="520" y="200" width="120" height="40" as="geometry" />
        </mxCell>
        <mxCell id="oZdQhtQClKmFtU5mLZvU-11" value="&lt;font style=&quot;font-size: 16px;&quot; color=&quot;#ffffff&quot;&gt;Self-driving Car&lt;/font&gt;" style="rounded=1;whiteSpace=wrap;html=1;fillColor=#74abc3;dashed=1;strokeColor=none;" vertex="1" parent="1">
          <mxGeometry x="40" y="280" width="120" height="40" as="geometry" />
        </mxCell>
        <mxCell id="oZdQhtQClKmFtU5mLZvU-12" value="&lt;font style=&quot;font-size: 16px;&quot; color=&quot;#ffffff&quot;&gt;Mobile Robot&lt;/font&gt;" style="rounded=1;whiteSpace=wrap;html=1;fillColor=#74abc3;dashed=1;strokeColor=none;" vertex="1" parent="1">
          <mxGeometry x="200" y="280" width="120" height="40" as="geometry" />
        </mxCell>
        <mxCell id="oZdQhtQClKmFtU5mLZvU-13" value="&lt;font style=&quot;font-size: 16px;&quot; color=&quot;#ffffff&quot;&gt;X Reality&lt;/font&gt;" style="rounded=1;whiteSpace=wrap;html=1;fillColor=#74abc3;dashed=1;strokeColor=none;" vertex="1" parent="1">
          <mxGeometry x="360" y="280" width="120" height="40" as="geometry" />
        </mxCell>
        <mxCell id="oZdQhtQClKmFtU5mLZvU-14" value="&lt;font style=&quot;font-size: 16px;&quot; color=&quot;#ffffff&quot;&gt;Civil Project&lt;/font&gt;" style="rounded=1;whiteSpace=wrap;html=1;fillColor=#74abc3;dashed=1;strokeColor=none;" vertex="1" parent="1">
          <mxGeometry x="520" y="280" width="120" height="40" as="geometry" />
        </mxCell>
        <mxCell id="oZdQhtQClKmFtU5mLZvU-15" value="&lt;font style=&quot;font-size: 16px;&quot; color=&quot;#ffffff&quot;&gt;Social Activity&lt;/font&gt;" style="rounded=1;whiteSpace=wrap;html=1;fillColor=#74abc3;dashed=1;strokeColor=none;" vertex="1" parent="1">
          <mxGeometry x="360" y="330" width="120" height="40" as="geometry" />
        </mxCell>
        <mxCell id="oZdQhtQClKmFtU5mLZvU-16" value="&lt;font style=&quot;font-size: 16px;&quot; color=&quot;#ffffff&quot;&gt;Game&lt;/font&gt;" style="rounded=1;whiteSpace=wrap;html=1;fillColor=#74abc3;dashed=1;strokeColor=none;" vertex="1" parent="1">
          <mxGeometry x="360" y="380" width="120" height="40" as="geometry" />
        </mxCell>
        <mxCell id="oZdQhtQClKmFtU5mLZvU-20" value="&lt;font style=&quot;font-size: 16px;&quot; color=&quot;#ffffff&quot;&gt;3D Applications&lt;/font&gt;" style="swimlane;childLayout=stackLayout;resizeParent=1;resizeParentMax=0;horizontal=0;startSize=20;horizontalStack=0;html=1;fillColor=#74abc3;rounded=0;" vertex="1" parent="1">
          <mxGeometry y="520" width="440" height="480" as="geometry">
            <mxRectangle x="80" y="510" width="40" height="60" as="alternateBounds" />
          </mxGeometry>
        </mxCell>
        <mxCell id="oZdQhtQClKmFtU5mLZvU-21" value="&lt;font style=&quot;font-size: 16px;&quot; color=&quot;#ffffff&quot;&gt;Mobile Vehicle&lt;/font&gt;" style="swimlane;startSize=20;horizontal=0;html=1;fillColor=#909090;" vertex="1" parent="oZdQhtQClKmFtU5mLZvU-20">
          <mxGeometry x="20" width="420" height="160" as="geometry">
            <mxRectangle x="20" width="420" height="30" as="alternateBounds" />
          </mxGeometry>
        </mxCell>
        <mxCell id="oZdQhtQClKmFtU5mLZvU-41" value="机器人/自动驾驶定位导航" style="whiteSpace=wrap;html=1;" vertex="1" parent="oZdQhtQClKmFtU5mLZvU-21">
          <mxGeometry x="20" width="160" height="40" as="geometry" />
        </mxCell>
        <mxCell id="oZdQhtQClKmFtU5mLZvU-42" value="&lt;b&gt;准确度&lt;/b&gt;：涉及xxx" style="whiteSpace=wrap;html=1;align=left;" vertex="1" parent="oZdQhtQClKmFtU5mLZvU-21">
          <mxGeometry x="20" y="40" width="400" height="40" as="geometry" />
        </mxCell>
        <mxCell id="oZdQhtQClKmFtU5mLZvU-44" value="&lt;b&gt;实时性&lt;/b&gt;：xxxx" style="whiteSpace=wrap;html=1;align=left;" vertex="1" parent="oZdQhtQClKmFtU5mLZvU-21">
          <mxGeometry x="20" y="80" width="400" height="40" as="geometry" />
        </mxCell>
        <mxCell id="oZdQhtQClKmFtU5mLZvU-45" value="&lt;b&gt;可视化&lt;/b&gt;：工程项xxx" style="whiteSpace=wrap;html=1;align=left;" vertex="1" parent="oZdQhtQClKmFtU5mLZvU-21">
          <mxGeometry x="20" y="120" width="400" height="40" as="geometry" />
        </mxCell>
        <mxCell id="oZdQhtQClKmFtU5mLZvU-46" value="目标检测" style="whiteSpace=wrap;html=1;" vertex="1" parent="oZdQhtQClKmFtU5mLZvU-21">
          <mxGeometry x="180" width="80" height="40" as="geometry" />
        </mxCell>
        <mxCell id="oZdQhtQClKmFtU5mLZvU-23" value="&lt;font style=&quot;font-size: 16px;&quot; color=&quot;#ffffff&quot;&gt;Civil Project&lt;/font&gt;" style="swimlane;startSize=20;horizontal=0;html=1;fillColor=#8f8f8f;" vertex="1" parent="oZdQhtQClKmFtU5mLZvU-20">
          <mxGeometry x="20" y="160" width="420" height="160" as="geometry">
            <mxRectangle x="20" y="240" width="420" height="30" as="alternateBounds" />
          </mxGeometry>
        </mxCell>
        <mxCell id="oZdQhtQClKmFtU5mLZvU-29" value="工程进度管理" style="whiteSpace=wrap;html=1;" vertex="1" parent="oZdQhtQClKmFtU5mLZvU-23">
          <mxGeometry x="20" width="80" height="40" as="geometry" />
        </mxCell>
        <mxCell id="oZdQhtQClKmFtU5mLZvU-32" value="工程偏差修正" style="whiteSpace=wrap;html=1;" vertex="1" parent="oZdQhtQClKmFtU5mLZvU-23">
          <mxGeometry x="100" width="80" height="40" as="geometry" />
        </mxCell>
        <mxCell id="oZdQhtQClKmFtU5mLZvU-34" value="工程缺陷检测" style="whiteSpace=wrap;html=1;" vertex="1" parent="oZdQhtQClKmFtU5mLZvU-23">
          <mxGeometry x="180" width="80" height="40" as="geometry" />
        </mxCell>
        <mxCell id="oZdQhtQClKmFtU5mLZvU-35" value="局部地图导航" style="whiteSpace=wrap;html=1;" vertex="1" parent="oZdQhtQClKmFtU5mLZvU-23">
          <mxGeometry x="260" width="80" height="40" as="geometry" />
        </mxCell>
        <mxCell id="oZdQhtQClKmFtU5mLZvU-33" value="历史遗迹保护" style="whiteSpace=wrap;html=1;" vertex="1" parent="oZdQhtQClKmFtU5mLZvU-23">
          <mxGeometry x="340" width="80" height="40" as="geometry" />
        </mxCell>
        <mxCell id="oZdQhtQClKmFtU5mLZvU-37" value="&lt;b&gt;准确度&lt;/b&gt;：涉及工程问题，对三维建图准确度要求在厘米级别，需要使用激光雷达或其他可以获得准确三维测量的设备。" style="whiteSpace=wrap;html=1;align=left;" vertex="1" parent="oZdQhtQClKmFtU5mLZvU-23">
          <mxGeometry x="20" y="40" width="400" height="40" as="geometry" />
        </mxCell>
        <mxCell id="oZdQhtQClKmFtU5mLZvU-38" value="&lt;b&gt;实时性&lt;/b&gt;：可以实时构建场景三维点云地图并实时显示，无后处理或后处理为其他额外功能。" style="whiteSpace=wrap;html=1;align=left;" vertex="1" parent="oZdQhtQClKmFtU5mLZvU-23">
          <mxGeometry x="20" y="80" width="400" height="40" as="geometry" />
        </mxCell>
        <mxCell id="oZdQhtQClKmFtU5mLZvU-40" value="&lt;b&gt;可视化&lt;/b&gt;：工程项目提供基础可视化即可，对历史遗迹保护等任务需要保留较为精细的色彩纹理信息。" style="whiteSpace=wrap;html=1;align=left;" vertex="1" parent="oZdQhtQClKmFtU5mLZvU-23">
          <mxGeometry x="20" y="120" width="400" height="40" as="geometry" />
        </mxCell>
        <mxCell id="oZdQhtQClKmFtU5mLZvU-27" value="&lt;font style=&quot;font-size: 16px;&quot; color=&quot;#ffffff&quot;&gt;X Reality&lt;/font&gt;" style="swimlane;startSize=20;horizontal=0;html=1;fillColor=#8f8f8f;" vertex="1" parent="oZdQhtQClKmFtU5mLZvU-20">
          <mxGeometry x="20" y="320" width="420" height="160" as="geometry">
            <mxRectangle x="20" y="60" width="460" height="30" as="alternateBounds" />
          </mxGeometry>
        </mxCell>
      </root>
    </mxGraphModel>
  </diagram>
</mxfile>
